<?xml version="1.0" encoding="utf-8"?>
<!-- Uploaded to: SVG Repo, www.svgrepo.com, Generator: SVG Repo Mixer Tools -->
<svg width="800px" height="800px" viewBox="-7.5 0 42 42" xmlns="http://www.w3.org/2000/svg">
<g transform="translate(-930.977 -120.86)">
<path d="M932,121.36h24.911c.312,0,.565.367.565.835v2.318c0,.468-.253.847-.565.847H932c-.311,0-.524-.379-.524-.847v-2.318C931.477,121.727,931.69,121.36,932,121.36Z" fill="none" stroke="#231f20" stroke-linecap="round" stroke-linejoin="round" stroke-width="1"/>
<path d="M932,162.36h24.911c.312,0,.565-.41.565-.872V159.2c0-.462-.253-.837-.565-.837H932c-.311,0-.524.375-.524.837v2.291C931.477,161.95,931.69,162.36,932,162.36Z" fill="none" stroke="#231f20" stroke-linecap="round" stroke-linejoin="round" stroke-width="1"/>
<path d="M955.477,128.334V125.36h-22v3.115a13.048,13.048,0,0,0,5.021,10.263l3.832,2.968-3.843,2.968a13.041,13.041,0,0,0-5.01,10.264v3.422h22v-3.281a12.791,12.791,0,0,0-4.923-10.4l-3.842-2.974,3.785-2.973A12.846,12.846,0,0,0,955.477,128.334Z" fill="none" stroke="#231f20" stroke-linecap="round" stroke-linejoin="round" stroke-width="1"/>
<path d="M944.893,148.442c-.006.005,0-.005,0,0s.006.08,0,.075a20.213,20.213,0,0,0-8.792,9.843h17.181A20.972,20.972,0,0,0,944.893,148.442Z" fill="none" stroke="#231f20" stroke-linecap="round" stroke-linejoin="round" stroke-width="1"/>
<path d="M944.477,132.36H937.47a12.623,12.623,0,0,0,7,6.266l0,0,0,0a12.623,12.623,0,0,0,7-6.266Z" fill="none" stroke="#231f20" stroke-linecap="round" stroke-linejoin="round" stroke-width="1"/>
</g>
</svg>